<?xml version="1.0" encoding="UTF-8" standalone="yes"?>
<svg viewBox="0 0 1080 1080" version="1.2" baseProfile="tiny-ps" xmlns="http://www.w3.org/2000/svg">
  <title>bimi-svg-tiny-12-ps</title>
  <defs id="defs3"/>
  <path d="m 850.17431,417.77026 c 0,0 -40.67701,-64.99308 -115.03474,-122.14865 0,0 53.8572,-48.83195 57.79483,-51.60648 3.93763,-2.77455 2.34393,-21.64144 2.34393,-21.64144 0,0 -64.33386,-19.9767 -68.21822,-18.86688 -3.88436,1.10981 -148.1428,8.87853 -148.1428,8.87853 l -36.06016,-6.6589 -23.65687,-2.26624 c 0,0 -18.50952,27.23712 -18.50952,36.94802 l -71.02828,16.9247 -85.38265,34.39545 -94.40767,89.90404 -49.38685,88.78535 -27.19052,98.77369 v 107.65224 l 48.83195,105.4326 81.01663,103.21297 100.99333,53.27121 130.95839,27.74541 130.95839,-22.19633 119.41407,-65.7167 77.02351,-109.63436 34.40431,-114.31114 -3.31168,-124.94539 c 0,0 -19.10217,-69.13272 -43.40938,-111.9317 z" fill="#ffffff" vector-effect="non-scaling-stroke" id="path1" stroke-width="2.21963"/>
  <path d="M 661.99377,850.1306 A 50.996084,50.996084 0 0 1 620.32236,828.52914 L 457.98723,598.55288 v 200.5661 c 0,28.16715 -22.83559,51.00053 -51.00274,51.00053 -28.16272,0 -51.00053,-22.83115 -51.00053,-51.00053 V 437.8736 a 51.011622,51.011622 0 0 1 35.56963,-48.61441 51.0205,51.0205 0 0 1 57.09786,19.20426 L 610.9888,638.4397 V 437.87138 c 0,-28.16493 22.83559,-51.00274 51.00052,-51.00274 28.16493,0 51.00053,22.83559 51.00053,51.00274 v 361.24538 a 51.002743,51.002743 0 0 1 -50.99608,51.00719 z" fill="#013b28" vector-effect="non-scaling-stroke" id="path2" stroke-width="2.21963"/>
  <path d="m 627.32308,125.90253 c -25.35931,3.8666 -48.82972,16.23662 -69.075,31.97383 -20.26747,15.73942 -36.33096,40.16648 -49.96394,63.42825 0,0 40.22419,-5.2006 73.25678,3.47151 135.59076,35.60292 189.27038,14.92481 200.69484,9.10271 -52.15029,29.00396 -102.79568,22.05872 -144.80668,14.79608 -7.54676,-1.30736 -14.75613,-2.55036 -21.79902,-3.71344 -34.81496,-8.3991 -91.67976,-14.58966 -128.60114,-8.22819 -61.92778,10.66978 -171.69755,44.72562 -250.68543,150.2581 a 366.17297,366.17297 0 0 0 -19.47951,28.79531 367.68232,367.68232 0 0 0 -41.07876,95.81493 370.8342,370.8342 0 0 0 -11.63975,68.8375 375.49543,375.49543 0 0 0 1.38061,69.89627 369.92415,369.92415 0 0 0 41.60925,133.20243 c 22.12309,41.29407 52.15252,78.33975 87.92413,108.62665 a 374.23024,374.23024 0 0 0 57.60615,40.1776 372.52112,372.52112 0 0 0 64.13854,28.671 373.18701,373.18701 0 0 0 68.37581,16.05905 377.27114,377.27114 0 0 0 34.99475,3.11637 c 5.34932,0.22862 10.70085,0.34848 16.04795,0.34848 h 1.51157 c 5.84429,-0.0311 11.69969,-0.19089 17.54176,-0.49498 a 370.2793,370.2793 0 0 0 135.60853,-33.04147 c 42.52373,-19.44177 81.24747,-46.95634 113.48543,-80.58158 32.27125,-33.58083 58.12332,-73.21018 75.62957,-116.16897 a 365.30731,365.30731 0 0 0 20.01,-66.407 364.41946,364.41946 0 0 0 5.15621,-34.24894 c 1.18973,-11.48661 1.83564,-23.00873 1.92221,-34.51531 0.16203,-23.03092 -1.77572,-46.0463 -5.86871,-68.63329 a 362.75473,362.75473 0 0 0 -7.75541,-33.49428 347.08412,347.08412 0 0 0 -10.89174,-32.52873 c -16.55402,-42.60143 -41.31182,-81.77353 -72.32011,-114.66405 14.24339,17.55286 26.93304,36.26437 37.76041,55.95031 a 357.02807,357.02807 0 0 1 14.86933,30.1626 354.29793,354.29793 0 0 1 12.02819,31.31459 c 14.10355,42.41498 20.01,87.2316 17.90801,131.49553 a 361.7559,361.7559 0 0 1 -9.19816,65.59463 357.11686,357.11686 0 0 1 -21.0843,62.53817 356.69514,356.69514 0 0 1 -74.25784,107.81649 c -31.01939,30.90396 -67.70771,55.9725 -107.66112,73.47653 -19.9545,8.78532 -40.73694,15.6351 -61.9411,20.55159 a 351.94512,351.94512 0 0 1 -64.6313,8.70319 355.94046,355.94046 0 0 1 -65.1085,-3.22069 C 467.42068,947.05379 446.18544,942.00857 425.62497,934.98565 384.4774,921.00639 346.01781,899.21625 312.7566,871.20891 A 353.80961,353.80961 0 0 1 266.98554,824.85186 348.70445,348.70445 0 0 1 247.49715,798.7068 347.68342,347.68342 0 0 1 230.47921,770.86371 c -20.9378,-38.14884 -34.72394,-80.24641 -40.3041,-123.52483 a 348.59347,348.59347 0 0 1 -2.72127,-32.62196 c -0.41064,-10.91393 -0.33517,-21.85896 0.24194,-32.77511 1.1986,-21.82788 4.34826,-43.56919 9.54665,-64.8355 a 353.78741,353.78741 0 0 1 36.37757,-91.44225 360.75706,360.75706 0 0 1 17.63721,-27.87638 361.00122,361.00122 0 0 1 94.02368,-92.40557 362.13324,362.13324 0 0 1 58.37415,-31.9716 355.18579,355.18579 0 0 1 31.26797,-11.83731 361.40075,361.40075 0 0 1 32.29124,-8.92515 384.59593,384.59593 0 0 1 22.42052,-4.36602 70.946152,70.946152 0 0 1 4.11298,-0.64147 c 11.55319,-1.46274 22.28735,0.13761 33.62301,4.56801 34.59521,13.51535 64.04753,78.06008 118.8969,91.12484 52.26793,12.44105 108.26707,-7.85529 149.66324,-42.12199 41.38729,-34.27114 70.33576,-81.0477 95.70616,-128.41247 -28.34694,11.14478 -60.47835,8.2193 -89.73091,-0.28411 -29.26364,-8.51451 -56.6739,-22.2829 -85.22283,-32.93936 -22.73349,-8.49232 -46.82096,-15.04468 -70.9062,-15.04468 a 122.97437,122.97437 0 0 0 -18.44516,1.37173" fill="#013b28" vector-effect="non-scaling-stroke" id="path3" stroke-width="2.21963"/>
</svg>
