<?xml version="1.0" encoding="UTF-8"?><svg xmlns:inkscape="http://www.inkscape.org/namespaces/inkscape" xmlns:sodipodi="http://sodipodi.sourceforge.net/DTD/sodipodi-0.dtd" xmlns="http://www.w3.org/2000/svg" xmlns:svg="http://www.w3.org/2000/svg" viewBox="0 0 1080 1080" version="1.2" baseProfile="tiny-ps"><title>SVGTiny.svg</title><defs id="defs3"></defs><path transform="matrix(2.74 0 0 2.74 -1107.7 -697.28)" d="m741.95 389.28s-18.326-29.281-51.826-55.031c0 0 24.264-22 26.038-23.25s1.056-9.75 1.056-9.75-28.984-9-30.734-8.5-66.742 4-66.742 4l-16.246-3-10.658-1.021s-8.339 12.271-8.339 16.646l-32 7.625-38.467 15.496-42.533 40.504-22.25 40-12.25 44.5v48.5l22 47.5 36.5 46.5 45.5 24 59 12.5 59-10 53.799-29.607 34.701-49.393 15.5-51.5-1.492-56.291s-8.606-31.146-19.557-50.428z" fill="#fff" vector-effect="non-scaling-stroke" id="path1"></path><path transform="matrix(2.74 0 0 2.74 -1107.7 -697.31)" d="m657.17 584.08a22.975 22.975 0 0 1-18.774-9.732l-73.136-103.61v90.36c0 12.69-10.288 22.977-22.978 22.977-12.688 0-22.977-10.286-22.977-22.977v-162.75a22.982 22.982 0 0 1 16.025-21.902 22.986 22.986 0 0 1 25.724 8.652l73.137 103.61v-90.361c0-12.689 10.288-22.978 22.977-22.978s22.977 10.288 22.977 22.978v162.75a22.978 22.978 0 0 1-22.975 22.98z" fill="#013b28" vector-effect="non-scaling-stroke" id="path2"></path><path transform="matrix(2.74 0 0 2.74 -1107.7 -697.29)" d="m641.55 257.79c-11.425 1.742-21.999 7.315-31.12 14.405-9.131 7.091-16.368 18.096-22.51 28.576 0 0 18.122-2.343 33.004 1.564 61.087 16.04 85.271 6.724 90.418 4.101-23.495 13.067-46.312 9.938-65.239 6.666-3.4-0.589-6.648-1.149-9.821-1.673-15.685-3.784-41.304-6.573-57.938-3.707-27.9 4.807-77.354 20.15-112.94 67.695a164.97 164.97 0 0 0-8.776 12.973 165.65 165.65 0 0 0-18.507 43.167 167.07 167.07 0 0 0-5.244 31.013 169.17 169.17 0 0 0 0.622 31.49 166.66 166.66 0 0 0 18.746 60.011c9.967 18.604 23.496 35.294 39.612 48.939a168.6 168.6 0 0 0 25.953 18.101 167.83 167.83 0 0 0 28.896 12.917 168.13 168.13 0 0 0 30.805 7.235 169.97 169.97 0 0 0 15.766 1.404c2.41 0.103 4.821 0.157 7.23 0.157h0.681c2.633-0.014 5.271-0.086 7.903-0.223a166.82 166.82 0 0 0 61.095-14.886c19.158-8.759 36.604-21.155 51.128-36.304 14.539-15.129 26.186-32.983 34.073-52.337a164.58 164.58 0 0 0 9.015-29.918 164.18 164.18 0 0 0 2.323-15.43c0.536-5.175 0.827-10.366 0.866-15.55 0.073-10.376-0.8-20.745-2.644-30.921a163.43 163.43 0 0 0-3.494-15.09 156.37 156.37 0 0 0-4.907-14.655c-7.458-19.193-18.612-36.841-32.582-51.659 6.417 7.908 12.134 16.338 17.012 25.207a160.85 160.85 0 0 1 6.699 13.589 159.62 159.62 0 0 1 5.419 14.108c6.354 19.109 9.015 39.3 8.068 59.242a162.98 162.98 0 0 1-4.144 29.552 160.89 160.89 0 0 1-9.499 28.175 160.7 160.7 0 0 1-33.455 48.574c-13.975 13.923-30.504 25.217-48.504 33.103-8.99 3.958-18.353 7.044-27.906 9.259a158.56 158.56 0 0 1-29.118 3.921 160.36 160.36 0 0 1-29.333-1.451c-9.693-1.391-19.26-3.664-28.523-6.828-18.538-6.298-35.865-16.115-50.85-28.733a159.4 159.4 0 0 1-20.621-20.885 157.1 157.1 0 0 1-8.78-11.779 156.64 156.64 0 0 1-7.667-12.544c-9.433-17.187-15.644-36.153-18.158-55.651a157.05 157.05 0 0 1-1.226-14.697c-0.185-4.917-0.151-9.848 0.109-14.766 0.54-9.834 1.959-19.629 4.301-29.21a159.39 159.39 0 0 1 16.389-41.197 162.53 162.53 0 0 1 7.946-12.559 162.64 162.64 0 0 1 42.36-41.631 163.15 163.15 0 0 1 26.299-14.404 160.02 160.02 0 0 1 14.087-5.333 162.82 162.82 0 0 1 14.548-4.021 173.27 173.27 0 0 1 10.101-1.967 31.963 31.963 0 0 1 1.853-0.289c5.205-0.659 10.041 0.062 15.148 2.058 15.586 6.089 28.855 35.168 53.566 41.054 23.548 5.605 48.777-3.539 67.427-18.977 18.646-15.44 31.688-36.514 43.118-57.853-12.771 5.021-27.247 3.703-40.426-0.128-13.184-3.836-25.533-10.039-38.395-14.84-10.242-3.826-21.094-6.778-31.945-6.778a55.403 55.403 0 0 0-8.31 0.618" fill="#013b28" vector-effect="non-scaling-stroke" id="path3"></path></svg>