<?xml version="1.0" encoding="UTF-8" standalone="yes"?>
<svg height="1024" version="1.2" viewBox="0 0 1024 1024" width="1024" baseProfile="tiny-ps" xmlns="http://www.w3.org/2000/svg">
  <title>Toto Gale</title>
  <defs id="defs2"/>
  <circle cx="512" cy="512" fill="#ffffff" id="circle1" r="512"/>
  <g id="g1" transform="matrix(0.4866675,0,0,0.4866675,261.77942,266.10622)">
    <defs id="defs1"/>
    <path d="m 1063.019,1103.9771 c -27.1515,18.0124 -54.0902,15.4763 -80.59336,1.2923 -19.395,-10.3784 -25.19926,-30.4082 -18.1559,-56.4735 4.2986,-15.9093 12.6088,-29.7342 21.8362,-43.1259 10.1677,-14.76506 18.84606,-30.06066 18.55656,-48.86048 -0.1598,-10.44337 -5.31306,-16.27989 -15.23526,-18.84851 -12.1665,-3.14758 -24.5253,-2.1748 -36.83069,-2.29285 -27.3347,-0.25941 -54.75506,1.23217 -81.78167,-4.58365 -15.28168,-3.28882 -17.17161,-7.86781 -8.71783,-20.94917 2.69363,-4.16663 5.01205,-8.57424 5.52391,-14.76749 -5.09311,5.32476 -10.17465,10.66113 -15.28396,15.96953 -13.24349,13.76004 -28.19164,25.19005 -45.74309,32.93505 -4.14814,1.83205 -8.90077,4.89399 -13.08599,1.6236 -4.22224,-3.29577 -2.29062,-8.49545 -1.25765,-12.95855 0.84077,-3.62713 3.11517,-7.38846 -2.38096,-10.4503 -5.9825,7.14522 -5.7833,16.43511 -7.89096,24.57381 -7.46017,28.78695 -5.97786,58.06701 -2.15165,87.19671 4.00685,30.4961 10.23717,60.5985 17.83864,90.4139 4.29869,16.8588 8.73404,20.9235 25.51652,22.5796 40.50405,3.9976 61.75431,22.6931 70.91913,62.3867 4.50946,19.5315 -0.85929,25.4074 -20.76158,27.4435 -30.83893,3.1545 -61.66858,1.8273 -92.50057,1.7879 -16.54626,-0.024 -33.09483,-1.4104 -49.63413,-2.3369 -20.40025,-1.1442 -35.31133,-11.5342 -47.13503,-27.6289 -19.58731,-26.6652 -33.42604,-56.2884 -45.73613,-86.7588 -11.26322,-27.8813 -22.57277,-55.7418 -33.9402,-83.5813 -5.76478,-14.1215 -7.58757,-14.8255 -21.33132,-9.0236 -14.16762,5.9825 -16.45824,4.6785 -16.05525,-10.3808 0.53734,-20.03416 1.61664,-40.05466 2.32075,-60.08667 0.1297,-3.68024 1.54483,-7.74509 -2.44119,-11.39293 -11.5643,0.95663 -20.27053,11.97656 -33.07861,11.45548 -4.13656,-10.36693 0.22236,-20.09682 1.92238,-29.57435 2.57087,-14.339 6.52909,-28.50424 10.94359,-42.4125 2.43885,-7.68019 -0.36595,-12.04143 -6.90199,-12.6575 -30.82967,-2.91135 -60.31833,-11.11499 -88.01895,-21.79455 -4.2454,2.03585 -5.01433,4.94024 -5.40808,7.38837 -5.87596,36.55512 -26.00987,65.48786 -49.39789,92.63961 -11.33268,13.15538 -23.11704,25.91718 -34.54933,38.98468 -8.56033,9.78316 -11.18678,19.96926 -5.06995,32.79126 11.47167,24.0482 23.02902,47.9086 38.37554,69.8468 9.40338,13.4474 21.60461,19.7843 37.91463,20.4212 32.95818,1.2831 65.42533,28.2123 69.66148,71.3035 0.97971,9.9685 -4.56272,16.2869 -14.32511,17.8386 -27.86273,4.4285 -56.03353,7.0572 -84.06996,4.0463 -19.61741,-2.1078 -39.26955,0.5349 -58.83833,-3.004 -15.80973,-2.8605 -28.56915,-9.8804 -37.50932,-22.684 -37.97022,-54.3704 -77.51539,-107.708 -108.91018,-166.4145 -8.55106,-15.98796 -9.80176,-30.06286 0.94265,-46.26866 19.77489,-29.83143 23.03828,-63.98466 21.1252,-98.87451 -0.22003,-4.03233 -1.21596,-7.58524 -6.12379,-9.93839 -15.7611,12.89143 -28.69422,30.42669 -48.47376,37.60887 -4.77581,-3.6409 -1.31555,-8.63906 -4.69706,-11.50869 -3.0619,-1.45219 -5.03521,0.65082 -7.02474,2.42032 -44.78652,39.80926 -92.697467,75.5745 -142.808714,108.2848 -18.5589373,12.11546 -30.472992,27.64036 -36.020054,48.84666 -5.259882,20.1061 -11.070983,40.0732 -16.974729,60.0011 -2.70058,9.1184 -1.005194,14.4107 9.322321,16.5346 44.332557,9.1253 54.467818,36.6407 52.802551,78.9327 -0.377543,9.6049 -6.568473,15.1058 -15.5179043,15.8004 -46.5398087,3.6109 -93.1954047,5.7535 -139.6842707,0.3475 -28.62936,-3.3305 -40.23537,-18.6606 -40.90009,-47.7442 -0.95888,-41.9839 9.06292,-82.423 16.45129,-123.2236 7.33046,-40.4786 12.5556,-81.25126 18.0934,-121.97994 0.97046,-7.14055 4.11804,-12.0043 9.45666,-16.37712 34.611872,-28.34453 60.445701,-63.60028 80.528651,-103.27515 5.088476,-10.04958 3.230959,-12.80574 -8.259228,-13.37549 -1.926996,-0.095 -3.865585,0.0255 -5.787951,-0.10428 -10.779146,-0.72262 -12.453692,-3.28192 -7.481016,-12.96786 14.105066,-27.46901 27.383304,-55.32018 39.183871,-83.84994 8.986461,-21.72044 17.521311,-43.62846 26.1557467,-65.49482 5.68836104,-14.40847 5.25988104,-14.95739 -10.1352617,-16.05753 -1.848254,-0.13205 -3.659448,-0.77128 -7.33973,-1.58191 C -6.3820003,556.76492 23.79684,510.05603 62.415573,466.2307 25.545509,445.0731 3.5726027,413.23128 -10.703841,375.53204 c -3.050323,-8.05773 -7.267949,-16.04598 -6.24655,-25.09266 1.262283,-0.36596 2.015026,-0.84076 2.675099,-0.73654 5.4729617,0.87317 11.3674527,6.71901 16.2266387,1.81584 5.167211,-5.21124 0.02548,-11.71718 -1.73709196,-17.2573 C -11.352359,297.92169 -12.45483,260.92191 -7.5238413,223.47514 c 0.296471,-2.25589 0.905596,-4.49787 1.644432,-6.65185 0.349728,-1.0191 1.350282,-1.81583 2.436536,-3.19855 9.716072,5.9084 11.784344,18.62844 21.1969853,25.06027 6.987695,-5.693 5.574879,-13.43111 6.728286,-19.74943 C 36.889775,150.98801 73.908083,99.480163 129.5247,60.303234 c 5.28304,-3.721964 11.56201,-6.077446 17.48429,-8.84287 7.98823,-3.731247 11.27248,-0.792109 11.57125,7.768221 0.62304,17.889578 -3.32128,35.195528 -6.02419,52.661255 -8.53021,55.10013 -13.39404,109.98951 5.39653,164.26975 10.01715,28.93507 25.71107,54.18523 46.11363,76.80201 6.51985,7.22626 13.16012,9.46592 23.41583,7.70569 26.61436,-4.56505 53.77301,-4.26163 80.69541,-4.78507 36.2424,-0.7041 72.56588,0.94265 108.65774,-3.32595 34.80411,-4.11338 67.4079,-15.61517 98.33254,-31.90201 21.53051,-11.34197 42.69275,-23.26528 60.74679,-39.9528 16.41192,-15.1728 26.32252,-33.8823 31.52681,-55.44987 2.02659,-8.40283 -0.52806,-10.29739 -8.72475,-8.94942 -31.57548,5.19733 -33.05314,3.27496 -23.28381,-26.34571 8.84289,-26.8228 20.46511,-52.40648 33.47466,-77.42042 2.80019,-5.38032 6.82557,-10.33678 7.15445,-17.220247 -8.53949,-6.3276 -19.18661,-4.57199 -28.64789,-7.16834 -9.0745,-2.48982 -10.68652,-6.70974 -5.50076,-13.936 9.44739,-13.160101 18.44545,-26.720907 28.81929,-39.116692 21.35913,-25.5211583 34.51923,-53.65255 37.38425,-87.514015 3.79378,-44.818942 20.8542,-85.851066 42.63717,-124.831106 10.53595,-18.85077 22.04469,-37.15726 33.17126,-55.67452 1.78571,-2.96693 3.72893,-5.869 5.87132,-8.58579 14.00315,-17.75758 20.51375,-17.89655 37.463,-2.7029 30.25758,27.1239 50.00468,61.38835 67.60709,97.24397 2.67974,5.45443 4.2709,11.6477 10.37151,16.51846 25.84773,-19.11249 53.00407,-36.24936 88.03051,-33.07397 1.18584,10.88568 -4.96804,20.06673 -3.58069,31.54997 37.9425,-2.69826 75.15516,1.26691 110.70046,16.24052 -21.1854,-11.30258 -44.52016,-15.78193 -66.58566,-21.15298 -2.0428,-5.03752 0.2942,-7.21467 2.6984,-9.16945 31.22096,-25.36598 58.60416,-54.79904 87.65286,-82.46722 6.6936,-6.37624 13.5747,-12.69689 21.088,-18.03089 12.4353,-8.82899 21.6372,-6.03113 27.1009,8.3542 7.5297,19.82122 13.3546,40.29328 16.1872,61.27485 4.7526,35.18164 5.7416,70.64352 5.0051,106.135514 -0.052,2.638049 0.3359,5.468333 -2.4041,7.77053 -6.9576,3.029465 -10.8138,-11.281742 -20.2963,-3.034095 29.614,28.694219 60.5872,56.2767117 76.455,95.46984 -6.1009,4.009186 -10.8186,2.480544 -15.3212,2.4597 -8.9193,-0.03935 -17.7367,0.363635 -26.1975,3.552902 -7.6316,2.876614 -10.7744,6.946005 -7.1568,15.788892 5.7186,13.98463 9.8273,28.74517 4.1692,43.80448 -4.0579,10.797677 0.8986,17.081267 9.4312,21.581457 12.2729,6.47352 24.5113,13.28751 37.4259,18.22312 36.4113,13.9221 50.3288,41.22667 53.4186,78.6665 2.9785,36.09185 -0.3127,70.68983 -12.4445,104.46328 -5.4521,15.1751 -12.7896,29.6137 -27.4505,38.56544 -7.0942,-4.60904 -4.3358,-13.8503 -11.2006,-18.40839 -19.0964,38.15088 -42.533,72.40838 -83.419,95.37489 0,-12.25916 0,-21.21784 0,-30.81116 -7.4698,2.38559 -11.2078,7.54587 -16.0067,11.19374 -14.1446,10.74904 -28.4209,21.31742 -44.5434,28.98374 -7.1937,3.42089 -9.8294,7.28877 -7.7797,16.22431 12.1942,53.17313 25.162,106.20266 34.1832,160.04515 1.5379,9.18798 4.4053,18.56358 2.3046,29.18985 -12.7988,-1.19741 -19.0152,-12.46759 -29.2246,-16.21272 0.4446,49.74067 -5.378,97.93416 -26.9547,143.67724 -11.2424,-3.58302 -14.3877,-13.61406 -22.30416,-19.40202 -6.9969,8.4121 -9.5424,18.52654 -13.2018,28.03646 -1.9872,5.16954 2.2443,7.72189 5.4823,10.34141 13.63256,11.02697 29.38886,18.35049 45.11986,25.73191 14.6634,6.87884 29.197,14.03329 43.8369,20.95843 37.1041,17.55145 51.1951,49.44191 54.0001,87.8383 3.9998,54.69705 -13.2737,103.25891 -44.0802,147.68871 -7.1104,10.2557 -15.9602,18.786 -26.3573,27.0058 M 936.33515,102.53745 c 1.58654,4.28017 -1.92236,8.99343 1.01908,13.49363 4.90086,0.64387 9.16949,-1.3364 13.30838,-3.14064 6.09364,-2.65659 12.19193,-5.97323 12.19423,-13.771547 0,-7.94425 -5.34549,-12.55561 -12.05992,-15.36043 -11.08719,-4.62756 -22.42222,-2.27672 -34.0838,-1.0237 13.8364,-1.32945 16.12472,8.73635 19.62203,19.802687 m 221.73225,70.64352 c -3.9559,1.45681 -8.1874,2.6751 -7.2102,9.98472 14.777,1.31322 29.2642,1.19743 43.0657,-7.65705 -10.9134,-6.06819 -22.4499,-5.05606 -35.8555,-2.32767 z" fill="#000000" id="path1" stroke="none" stroke-width="2.3161"/>
  </g>
</svg>
