<?xml version="1.0" encoding="UTF-8" standalone="yes"?>
<svg version="1.2" width="1008" viewBox="0.0 -128.0 1008.0 1008.0" xml:space="preserve" baseProfile="tiny-ps" xmlns="http://www.w3.org/2000/svg">
  <title>Toto Gale</title>
  <defs id="defs1"/>
  <path fill="#000000" stroke="none" d=" M721.875,645.028   C710.152,652.805 698.521,651.710 687.078,645.586   C678.704,641.105 676.198,632.457 679.239,621.203   C681.095,614.334 684.683,608.365 688.667,602.583   C693.057,596.208 696.804,589.604 696.679,581.487   C696.610,576.978 694.385,574.458 690.101,573.349   C684.848,571.990 679.512,572.410 674.199,572.359   C662.397,572.247 650.558,572.891 638.889,570.380   C632.291,568.960 631.475,566.983 635.125,561.335   C636.288,559.536 637.289,557.633 637.510,554.959   C635.311,557.258 633.117,559.562 630.911,561.854   C625.193,567.795 618.739,572.730 611.161,576.074   C609.370,576.865 607.318,578.187 605.511,576.775   C603.688,575.352 604.522,573.107 604.968,571.180   C605.331,569.614 606.313,567.990 603.940,566.668   C601.357,569.753 601.443,573.764 600.533,577.278   C597.312,589.707 597.952,602.349 599.604,614.926   C601.334,628.093 604.024,641.090 607.306,653.963   C609.162,661.242 611.077,662.997 618.323,663.712   C635.811,665.438 644.986,673.510 648.943,690.648   C650.890,699.081 648.572,701.618 639.979,702.497   C626.664,703.859 613.353,703.286 600.041,703.269   C592.897,703.259 585.752,702.660 578.611,702.260   C569.803,701.766 563.365,697.280 558.260,690.331   C549.803,678.818 543.828,666.028 538.513,652.872   C533.650,640.834 528.767,628.805 523.859,616.785   C521.370,610.688 520.583,610.384 514.649,612.889   C508.532,615.472 507.543,614.909 507.717,608.407   C507.949,599.757 508.415,591.113 508.719,582.464   C508.775,580.875 509.386,579.120 507.665,577.545   C502.672,577.958 498.913,582.716 493.383,582.491   C491.597,578.015 493.479,573.814 494.213,569.722   C495.323,563.531 497.032,557.415 498.938,551.410   C499.991,548.094 498.780,546.211 495.958,545.945   C482.647,544.688 469.915,541.146 457.955,536.535   C456.122,537.414 455.790,538.668 455.620,539.725   C453.083,555.508 444.390,568.000 434.292,579.723   C429.399,585.403 424.311,590.913 419.375,596.555   C415.679,600.779 414.545,605.177 417.186,610.713   C422.139,621.096 427.129,631.398 433.755,640.870   C437.815,646.676 443.083,649.412 450.125,649.687   C464.355,650.241 478.373,661.868 480.202,680.473   C480.625,684.777 478.232,687.505 474.017,688.175   C461.987,690.087 449.824,691.222 437.719,689.922   C429.249,689.012 420.764,690.153 412.315,688.625   C405.489,687.390 399.980,684.359 396.120,678.831   C379.726,655.356 362.652,632.327 349.097,606.980   C345.405,600.077 344.865,594.000 349.504,587.003   C358.042,574.123 359.451,559.377 358.625,544.313   C358.530,542.572 358.100,541.038 355.981,540.022   C349.176,545.588 343.592,553.159 335.052,556.260   C332.990,554.688 334.484,552.530 333.024,551.291   C331.702,550.664 330.850,551.572 329.991,552.336   C310.654,569.524 289.968,584.966 268.332,599.089   C260.319,604.320 255.175,611.023 252.780,620.179   C250.509,628.860 248.000,637.481 245.451,646.085   C244.285,650.022 245.017,652.307 249.476,653.224   C268.617,657.164 272.993,669.044 272.274,687.304   C272.111,691.451 269.438,693.826 265.574,694.126   C245.480,695.685 225.336,696.610 205.264,694.276   C192.903,692.838 187.892,686.219 187.605,673.662   C187.191,655.535 191.518,638.075 194.708,620.459   C197.873,602.982 200.129,585.378 202.520,567.793   C202.939,564.710 204.298,562.610 206.603,560.722   C221.547,548.484 232.701,533.262 241.372,516.132   C243.569,511.793 242.767,510.603 237.806,510.357   C236.974,510.316 236.137,510.368 235.307,510.312   C230.653,510.000 229.930,508.895 232.077,504.713   C238.167,492.853 243.900,480.828 248.995,468.510   C252.875,459.132 256.560,449.673 260.288,440.232   C262.744,434.011 262.559,433.774 255.912,433.299   C255.114,433.242 254.332,432.966 252.743,432.616   C260.151,408.764 273.181,388.597 289.855,369.675   C273.936,360.540 264.449,346.792 258.285,330.515   C256.968,327.036 255.147,323.587 255.588,319.681   C256.133,319.523 256.458,319.318 256.743,319.363   C259.106,319.740 261.651,322.264 263.749,320.147   C265.980,317.897 263.760,315.088 262.999,312.696   C258.005,297.006 257.529,281.031 259.658,264.863   C259.786,263.889 260.049,262.921 260.368,261.991   C260.519,261.551 260.951,261.207 261.420,260.610   C265.615,263.161 266.508,268.653 270.572,271.430   C273.589,268.972 272.979,265.631 273.477,262.903   C278.834,233.566 294.817,211.327 318.830,194.412   C321.111,192.805 323.822,191.788 326.379,190.594   C329.828,188.983 331.246,190.252 331.375,193.948   C331.644,201.672 329.941,209.144 328.774,216.685   C325.091,240.475 322.991,264.174 331.104,287.610   C335.429,300.103 342.205,311.005 351.014,320.770   C353.829,323.890 356.696,324.857 361.124,324.097   C372.615,322.126 384.341,322.257 395.965,322.031   C411.613,321.727 427.296,322.438 442.879,320.595   C457.906,318.819 471.983,313.853 485.335,306.821   C494.631,301.924 503.768,296.776 511.563,289.571   C518.649,283.020 522.928,274.942 525.175,265.630   C526.050,262.002 524.947,261.184 521.408,261.766   C507.775,264.010 507.137,263.180 511.355,250.391   C515.173,238.810 520.191,227.764 525.808,216.964   C527.017,214.641 528.755,212.501 528.897,209.529   C525.210,206.797 520.613,207.555 516.528,206.434   C512.610,205.359 511.914,203.537 514.153,200.417   C518.232,194.735 522.117,188.880 526.596,183.528   C535.818,172.509 541.500,160.363 542.737,145.743   C544.375,126.392 551.741,108.676 561.146,91.846   C565.695,83.707 570.664,75.803 575.468,67.808   C576.239,66.527 577.078,65.274 578.003,64.101   C584.049,56.434 586.860,56.374 594.178,62.934   C607.242,74.645 615.768,89.439 623.368,104.920   C624.525,107.275 625.212,109.949 627.846,112.052   C639.006,103.800 650.731,96.401 665.854,97.772   C666.366,102.472 663.709,106.436 664.308,111.394   C680.690,110.229 696.757,111.941 712.104,118.406   C702.957,113.526 692.882,111.592 683.355,109.273   C682.473,107.098 683.482,106.158 684.520,105.314   C698.000,94.362 709.823,81.654 722.365,69.708   C725.255,66.955 728.226,64.226 731.470,61.923   C736.839,58.111 740.812,59.319 743.171,65.530   C746.422,74.088 748.937,82.927 750.160,91.986   C752.212,107.176 752.639,122.487 752.321,137.811   C752.298,138.950 752.466,140.172 751.283,141.166   C748.279,142.474 746.614,136.295 742.520,139.856   C755.306,152.245 768.679,164.154 775.530,181.076   C772.896,182.807 770.859,182.147 768.915,182.138   C765.064,182.121 761.257,182.295 757.604,183.672   C754.309,184.914 752.952,186.671 754.514,190.489   C756.983,196.527 758.757,202.900 756.314,209.402   C754.562,214.064 756.702,216.777 760.386,218.720   C765.685,221.515 770.969,224.457 776.545,226.588   C792.266,232.599 798.275,244.388 799.609,260.553   C800.895,276.136 799.474,291.074 794.236,305.656   C791.882,312.208 788.714,318.442 782.384,322.307   C779.321,320.317 780.512,316.327 777.548,314.359   C769.303,330.831 759.184,345.622 741.531,355.538   C741.531,350.245 741.531,346.377 741.531,342.235   C738.306,343.265 736.692,345.493 734.620,347.068   C728.513,351.709 722.349,356.272 715.388,359.582   C712.282,361.059 711.144,362.729 712.029,366.587   C717.294,389.545 722.893,412.441 726.788,435.688   C727.452,439.655 728.690,443.703 727.783,448.291   C722.257,447.774 719.573,442.908 715.165,441.291   C715.357,462.767 712.843,483.575 703.527,503.325   C698.673,501.778 697.315,497.447 693.897,494.948   C690.876,498.580 689.777,502.947 688.197,507.053   C687.339,509.285 689.166,510.387 690.564,511.518   C696.450,516.279 703.253,519.441 710.045,522.628   C716.376,525.598 722.651,528.687 728.972,531.677   C744.992,539.255 751.076,553.024 752.287,569.602   C754.014,593.218 746.556,614.185 733.255,633.368   C730.185,637.796 726.364,641.479 721.875,645.028  M667.178,212.647   C667.863,214.495 666.348,216.530 667.618,218.473   C669.734,218.751 671.577,217.896 673.364,217.117   C675.995,215.970 678.628,214.538 678.629,211.171   C678.630,207.741 676.321,205.750 673.422,204.539   C668.635,202.541 663.741,203.556 658.706,204.097   C664.680,203.523 665.668,207.869 667.178,212.647  M762.913,243.148   C761.205,243.777 759.378,244.303 759.800,247.459   C766.180,248.026 772.435,247.976 778.394,244.153   C773.682,241.533 768.701,241.970 762.913,243.148  z" id="path1"/>
</svg>